<?xml version="1.0" encoding="UTF-8" standalone="no"?>
<!-- Created with Inkscape (http://www.inkscape.org/) -->

<svg
   width="16"
   height="16"
   viewBox="0 0 16 16"
   version="1.1"
   id="SVGRoot"
   xmlns="http://www.w3.org/2000/svg"
   xmlns:svg="http://www.w3.org/2000/svg">
  <defs
     id="defs1775" />
  <g
     id="layer4">
    <rect
       style="fill:#000000;fill-opacity:1;stroke:none;stroke-width:5.10337;stroke-opacity:1;stop-color:#000000"
       id="rect7762"
       width="26.650024"
       height="26.035664"
       x="-5.1787963"
       y="-5.0054364" />
  </g>
  <g
     id="layer2"
     style="display:inline">
    <ellipse
       style="display:inline;opacity:1;mix-blend-mode:normal;fill:none;stroke:#ff1600;stroke-width:6.67087;stroke-opacity:1;stop-color:#000000"
       id="path2738"
       cx="8.1569729"
       cy="7.8567619"
       rx="9.9687757"
       ry="9.6747046" />
    <g
       aria-label="LEB"
       transform="rotate(3.3071207)"
       id="text2906"
       style="font-size:11.6972px;line-height:1.25;letter-spacing:0px;opacity:1;fill:#00ff00;stroke-width:2.92429">
      <path
         d="M -0.05524989,8.3067589 H 4.389686 V 6.8563061 H 1.6876329 v -7.24056669 h -1.74288279 z"
         style="font-weight:bold;font-family:'Noto Sans Mono CJK TC';-inkscape-font-specification:'Noto Sans Mono CJK TC'"
         id="path295" />
      <path
         d="M 5.7114696,8.3067589 H 10.168103 V 6.8563061 H 7.4543524 V 4.5402605 H 9.6417288 V 3.0898078 H 7.4543524 V 1.0661922 H 10.074525 V -0.38426059 H 5.7114696 Z"
         id="path297" />
      <path
         d="m 11.454795,8.3067589 h 2.093798 c 1.579122,0 2.725448,-0.8071068 2.725448,-2.5499896 0,-1.2048116 -0.561466,-1.8364604 -1.520636,-2.0587071 v -0.046789 c 0.865593,-0.2807328 1.2516,-1.0878396 1.2516,-1.8832492 0,-1.62591079 -1.099536,-2.15228479 -2.608475,-2.15228479 H 11.454795 Z M 13.18598,3.1716882 V 0.93752299 h 0.233944 c 0.573163,0 0.87729,0.26903561 0.87729,1.07614241 0,0.7954096 -0.29243,1.1580228 -0.912381,1.1580228 z m 0,3.7898927 V 4.3998941 h 0.29243 c 0.736924,0 1.111234,0.3860076 1.111234,1.2399032 0,0.8889872 -0.386007,1.3217836 -1.146325,1.3217836 z"
         id="path299" />
    </g>
    <g
       aria-label="128"
       transform="matrix(1.1353798,-0.07620903,0.05885344,0.87681217,0,0)"
       id="text2906-2"
       style="font-size:11.7813px;line-height:1.25;letter-spacing:0px;opacity:1;fill:#00ff00;stroke-width:2.94531">
      <path
         d="M -1.704758,19.22863 H 3.1844814 V 17.826655 H 1.7236002 V 10.698969 H 0.45121987 c -0.53015848,0.353439 -1.06031696,0.577284 -1.88500797,0.730441 v 1.083879 h 1.42553729 v 5.313366 H -1.704758 Z"
         id="path302" />
      <path
         d="M 4.0562975,19.22863 H 9.0751312 V 17.791312 H 7.6260313 c -0.4123455,0 -0.8011283,0.03534 -1.260599,0.08247 1.2959429,-1.672945 2.3798225,-3.26342 2.3798225,-4.759645 0,-1.555132 -0.942504,-2.580105 -2.3326973,-2.580105 -1.0367544,0 -1.7318511,0.447689 -2.4505104,1.237036 l 0.9778479,0.966067 c 0.3416577,-0.447689 0.7540032,-0.824691 1.2488178,-0.824691 0.5772837,0 0.8835974,0.483033 0.8835974,1.295943 0,1.472662 -1.1899112,2.980669 -3.0160127,5.030615 z"
         id="path304" />
      <path
         d="m 12.456364,19.370006 c 1.602257,0 2.509417,-0.98963 2.509417,-2.26201 0,-1.107442 -0.589065,-1.778976 -1.260599,-2.273791 v -0.04713 c 0.530158,-0.459471 0.977848,-1.131005 0.977848,-2.038165 0,-1.284161 -0.871816,-2.191321 -2.191322,-2.191321 -1.390193,0 -2.35626,0.871816 -2.35626,2.203103 0,0.883597 0.459471,1.614038 1.001411,2.097071 v 0.04712 c -0.659753,0.518377 -1.1899117,1.095661 -1.1899117,2.226666 0,1.295943 0.9778477,2.238447 2.5094167,2.238447 z m 0.259189,-5.113084 c -0.589065,-0.341658 -1.001411,-0.836473 -1.001411,-1.508007 0,-0.63619 0.306314,-0.977848 0.742222,-0.977848 0.483033,0 0.777566,0.459471 0.777566,1.072099 0,0.530158 -0.17672,0.989629 -0.518377,1.413756 z m -0.247408,3.911391 c -0.577283,0 -0.977847,-0.435908 -0.977847,-1.119223 0,-0.671534 0.259188,-1.154568 0.589065,-1.531569 0.765784,0.494814 1.201692,0.90716 1.201692,1.684726 0,0.600846 -0.27097,0.966066 -0.81291,0.966066 z"
         id="path306" />
    </g>
  </g>
</svg>
